<svg width="197" height="29" viewBox="0 0 197 29" fill="none" xmlns="http://www.w3.org/2000/svg">
<rect width="197" height="29" fill="#F5F5F5"/>
<g id="&#208;&#147;&#208;&#187;&#208;&#176;&#208;&#178;&#208;&#189;&#208;&#176;&#209;&#143; &#209;&#129;&#209;&#130;&#209;&#128;&#208;&#176;&#208;&#189;&#208;&#184;&#209;&#134;&#208;&#176;" clip-path="url(#clip0_0_1)">
<rect width="1280" height="4498" transform="translate(-90 -35)" fill="white"/>
<g id="Head">
<rect id="Rectangle 11" y="-35" width="1100" height="99" fill="white"/>
<g id="logo">
<path d="M1.5 21.4298C0.9 21.4298 0.7 21.726 0.7 22.2198V23.0098C0.7 23.4049 0.6 23.5036 0.2 23.5036C0.1 23.5036 0 23.5036 0 23.4049V22.1211C0 22.0223 0.3 21.6273 0.8 20.8372V20.7385C1 20.3435 1.5 19.6522 2.3 18.6646C3.2 17.5783 3.8 17.0846 4.1 17.0846C4.9 17.0846 5.8 17.3808 6.9 17.8746C8 18.5659 8.7 18.8622 8.9 18.8622C9.1 18.8622 9.2 18.7634 9.3 18.4671C9.45654 17.6627 9.77648 16.898 10.2405 16.2191C10.7046 15.5402 11.3031 14.9611 12 14.5169C12.5 14.4182 12.8 14.2207 12.8 14.0232C12.8 13.7269 12.4 13.4306 11.5 13.1344C10.7 12.8381 10.1 12.6406 9.8 12.6406C9.4 12.6406 8.7 13.1344 7.9 14.0232C7 15.0107 6.4 15.4057 6.1 15.4057C5.8 15.4057 5.4 15.2082 4.9 14.7145C2.5 12.7394 1.3 10.7643 1.3 8.59166C1.3 7.60411 2.2 6.22155 3.9 4.54272C4.2 4.34521 4.7 3.75268 5.4 3.0614C5.6 2.86389 6 2.56762 6.5 2.1726C6.7 2.07385 6.8 1.97509 7 1.67883C7.6 0.987547 8.3 0.493774 9 0H9.2C9.4 0 9.6 0.0987548 9.9 0.197509C10.3 0.395019 10.5 0.592528 10.5 0.592528C12.6 1.38257 14.1 1.87634 15.1 1.87634C15.8 1.87634 16.2 1.77758 16.4 1.58008C16.5 1.48132 16.5 1.0863 16.5 0.395019C16.5 0.296264 16.6 0.296264 16.7 0.296264C17 0.296264 17.1 0.592528 17.1 1.18506C17.1 1.97509 16.7 3.0614 16.1 4.34521C16 4.54272 15.8 4.74023 15.6 5.03649C15 6.12279 14.6 6.61657 14.4 6.61657H12.4C12.1 6.51781 11.6 6.41906 10.9 6.41906H10.5C10.3 6.71532 10 7.11034 9.6 7.70287C9.2 8.09789 8.9 8.39415 8.4 8.59166C8.3 8.69042 7.8 8.78917 7 9.08543L6.9 9.18419C6.9 9.48045 7.2 9.97423 7.9 10.468C8.5 10.9618 9.1 11.3568 9.5 11.4555C9.8 11.4555 10.4 11.0605 11.3 10.1717C11.9 9.57921 12.4 8.98668 13 8.39415H13.2C13.5 8.39415 14.2 8.69042 15.2 9.18419C16.2 9.67796 16.8 10.073 16.8 10.3692C17.7 11.258 18.4 12.1468 18.8 13.2331C19.1 14.0232 19.4 15.2082 19.6 16.6895V18.3684C19.6 18.5659 19.5 18.6646 19.4 18.8622C19.1 19.0597 18.6 19.3559 18 19.8497C17.7 20.146 17.1 20.541 16.4 21.0348C15.5 21.6273 14.3 22.8123 12.7 24.4912C12.3 24.8862 11.8 25.0837 11.3 25.0837C10.5 25.0837 9.6 24.8862 8.6 24.4912C7.8 24.0962 6.9 23.7011 6.1 23.3061C5 22.8123 3.9 22.4173 3.1 22.1211C2.3 21.6273 1.8 21.4298 1.5 21.4298ZM11.9 24.5899H12.2L12.4 24.2937C12.1 24.0962 11.7 23.8986 11.2 23.7999C10.4 23.6024 10 23.5036 9.9 23.5036C9.9 23.5036 9.1 23.1086 7.6 22.4173C6.7 22.1211 5.7 21.6273 4.4 21.0348C4.4 21.0348 3.9 20.8372 3 20.6397C2.8 20.541 2.5 20.541 2.2 20.4422C1.9 20.4422 1.7 20.541 1.7 20.8372L4.1 21.726C5 22.1211 6.5 22.7136 8.4 23.5036C8.8 23.7011 9.5 23.8986 10.4 24.2937C10.8 24.4912 11.3 24.5899 11.9 24.5899ZM1.7 8.88792C1.7 9.57921 1.8 10.1717 2.1 10.6655C2.4 11.3568 2.9 12.2456 3.8 13.1344C4.7 14.2207 5.5 14.8132 6.1 14.8132C6.3 14.8132 6.3 14.7145 6.3 14.5169C4.3 12.9369 3 11.3568 2.5 9.87547C2.4 9.57921 2.3 9.28294 2.2 8.88792C2 8.39415 1.9 8.09789 1.9 8.09789C1.8 8.09789 1.7 8.39415 1.7 8.88792ZM1.8 7.80162C1.8 7.90038 1.8 7.90038 1.8 7.80162V7.80162ZM2.2 19.8497C2.5 20.0472 3.3 20.3435 4.8 20.7385C5.1 20.936 5.5 21.1335 6.1 21.4298C7.2 21.9235 8.3 22.3186 9.3 22.8123C10.8 23.4049 11.9 23.7011 12.5 23.7011C12.9 23.7011 13.1 23.6024 13.1 23.3061C13.1 23.0098 12.3 22.8123 10.8 22.5161C10.1 22.4173 8.7 21.8248 6.8 20.8372C5 19.9485 3.7 19.5534 2.8 19.5534C2.4 19.4547 2.2 19.5534 2.2 19.8497ZM6.9 14.0232C7.2 14.0232 7.3 13.9244 7.3 13.6282C7.2 13.4306 6.7 12.9369 5.6 12.2456C4.75399 11.5863 4.12711 10.692 3.8 9.67796C3.4 8.69042 3 7.70287 2.8 6.61657C2.6 6.61657 2.6 6.71532 2.6 6.81408V8.49291C2.6 8.98668 2.7 9.48045 3 9.97423C3.4 10.6655 4 11.4555 4.6 12.2456L5.7 13.3319C6.2 13.7269 6.6 14.0232 6.9 14.0232ZM6.6 8.59166C7 8.59166 7.6 8.19664 8.4 7.50536C9.3 6.81408 9.7 6.3203 9.7 5.92528C8.9 5.62902 8.2 5.13524 7.5 4.64147C7.1 4.34521 6.6 3.95019 6 3.45642H5.9C5.7 3.45642 5.5 3.65392 5.3 4.04894C5.1 4.44396 5.1 4.64147 5.1 4.83898C5.1 5.33275 5.2 6.02404 5.6 6.91283C5.9 7.99913 6.2 8.59166 6.6 8.59166ZM11.3 5.82653C12.3 5.92528 13.3 6.02404 14.2 6.02404C14.6 5.82653 14.8 5.62902 14.8 5.53026L14.7 5.43151C13 5.43151 11.9 5.33275 11.3 5.13524C11 5.03649 10.6 4.83898 10 4.64147C9.7 4.44396 9.3 4.24645 8.8 4.04894C8.5 3.75268 8.2 3.55517 7.8 3.25891C7.3 2.86389 7 2.66638 6.9 2.66638C6.6 2.66638 6.5 2.76513 6.5 3.0614C7.2 3.85143 8.1 4.44396 9.3 4.93774C9.6 5.234 9.9 5.33275 10.4 5.53026C10.8 5.62902 11.1 5.72777 11.3 5.82653ZM7.4 2.1726C7.4 2.37011 7.7 2.66638 8.4 3.16015C8.9 3.45641 9.3 3.75268 9.7 3.95019C10 4.04894 10.5 4.24645 11.2 4.44396C11.8 4.74023 12.7 4.93774 14 4.93774C14.5 4.93774 14.8 4.93774 14.9 4.83898C15.2 4.74023 15.4 4.54272 15.4 4.1477C15.4 4.1477 15.2 4.04894 14.7 4.04894C13.6 4.04894 12.6 3.95019 11.6 3.65392C10.6 3.35766 9.7 2.86389 8.7 2.1726C8.3 1.87634 7.9 1.77758 7.7 1.77758C7.5 1.77758 7.4 1.87634 7.4 2.1726ZM9.8 18.9609C9.8 19.2572 9.9 19.3559 10.2 19.4547C12.4 20.3435 14.1 20.8372 15.1 20.8372C15.3 20.6397 15.4 20.146 15.4 19.4547C15.4 18.5659 15.3 17.6771 15 16.7883C14.7 15.702 14.2 15.0107 13.6 14.5169H13.4C12.9 14.5169 12.2 15.1095 11.3 16.2945C10.5 17.3808 10 18.1709 9.8 18.9609ZM15.6 17.2821C15.6 17.5783 15.6 18.0721 15.7 18.6646C15.8 19.2572 15.8 19.6522 15.8 19.9485C15.8 20.146 15.8 20.2447 15.9 20.3435L16.1 19.9485C16.2 19.4547 16.2 18.9609 16.2 18.3684C16.2 16.8871 15.6 15.4057 14.5 14.0232C13.3 12.4431 12 11.7518 10.5 11.7518C10.1 11.7518 9.9 11.8506 9.9 11.9493C9.9 12.0481 10.3 12.2456 11.2 12.5419C12.1 12.8381 12.7 13.1344 12.9 13.3319C13.2 13.6282 13.6 14.0232 14.1 14.6157C14.3 14.8132 14.5 15.2082 14.8 15.8008C15.1 16.3933 15.3 16.7883 15.3 16.9858C15.6 17.0846 15.6 17.1833 15.6 17.2821ZM16.9 17.7758C16.9 18.7634 17 19.3559 17.2 19.5534C17.5 19.3559 17.6 19.0597 17.6 18.3684C17.6 15.6032 16.7 13.4306 14.8 11.9493C13.8 11.0605 12.8 10.6655 12 10.6655C11.6 10.6655 11.4 10.7643 11.4 11.0605C11.5 11.1593 12.1 11.4555 13.2 11.9493C14.1 12.3443 14.6 12.7394 14.6 12.9369L15.4 13.7269C15.5 13.8257 15.8 14.3194 16.1 15.0107C16.4 15.702 16.6 16.1958 16.7 16.3933C16.7 16.7883 16.7 17.1833 16.9 17.7758Z" fill="#CC0000"/>
<path d="M22.4 19.1584V15.6032C22.4 14.1219 22.3 13.2331 22.2 12.8381C22.1 12.7394 22 12.6406 21.7 12.4431C21.4 12.3443 21.3 12.1468 21.3 11.8506C21.4 11.7518 21.9 11.258 22.8 10.2705C23.7 9.3817 24.2 8.88792 24.3 8.88792C24.7 8.88792 25.2 9.08543 25.8 9.57921C26.5 9.97423 26.9 10.3692 27 10.7643C27.2 11.258 27.3 11.7518 27.3 12.2456C27.3 12.3443 27.3 12.4431 27.5 12.4431C28.2 12.0481 29.4 10.9618 31.2 8.98668C31.3 8.88793 31.5 8.78917 31.7 8.78917C32.5 8.78917 33.4 9.28294 34.3 10.1717C34.8 10.6655 35.2 11.3568 35.3 12.2456H35.4C35.5 12.2456 35.8 11.9493 36.3 11.3568C36.8 10.7643 37.1 10.468 37.2 10.468C37.3 10.2705 37.8 9.77672 38.8 8.88792H38.9C39.3 8.88792 40.1 9.48045 41.1 10.7643C42 11.9493 42.6 12.7394 42.8 13.3319C43.3 14.6157 43.6 15.702 43.6 16.492C43.6 17.6771 43.2 18.6646 42.5 19.4547C42 19.9485 40.9 20.936 39.1 22.4173C37.2 23.9974 36.2 24.7874 36 24.7874H35.1C34.9 24.6887 34.5 24.4912 33.9 24.3924C33.3 24.2937 32.9 24.0962 32.8 23.8986C32.1 23.6024 31.6 23.3061 31.3 22.8123C31 22.4173 30.8 21.9235 30.6 21.1335H30.4L28.8 23.2074C28 24.2937 27.5 24.8862 27.2 24.8862C26.6 24.8862 25.9 24.6887 25 24.2937C24 23.8986 23.4 23.5036 23.1 23.1086C22.7 22.5161 22.5 22.1211 22.5 21.8248C22.5 21.5285 22.5 21.1335 22.4 20.541C22.5 20.146 22.4 19.7509 22.4 19.1584ZM27.3 18.3684C27.3 19.2572 27.4 19.8497 27.7 20.146C28 20.4422 28.6 20.7385 29.4 20.8372C30 20.8372 30.4 19.9485 30.5 18.2696V15.307C30.5 14.5169 30.4 13.9244 30.1 13.4306C29.7 12.7394 29.2 12.4431 28.5 12.4431C27.9 12.4431 27.5 12.8381 27.4 13.6282V18.3684H27.3ZM35.2 17.7758C35.2 19.0597 35.5 20.0472 36.2 20.6397C36.3 20.6397 36.5 20.7385 37 20.936C37.6 21.2323 38.4 21.331 39.4 21.331C39.6 21.2323 39.6 21.1335 39.6 20.936C39.6 18.0721 38.8 15.6032 37.1 13.6282C36.5 12.9369 36.1 12.6406 35.7 12.6406C35.5 12.6406 35.3 12.8381 35.3 13.3319V14.3194L35.2 16.1958V17.7758ZM45 11.8506L45.1 11.7518C46.6 11.7518 48.6 11.258 51.1 10.1717C51.2 10.1717 51.6 9.87547 52.4 9.48045C53 9.18419 53.4 8.98668 53.6 8.98668C53.9 8.98668 54.4 9.48045 55 10.468C55.6 11.3568 55.9 11.9493 56.1 12.4431C56.3 13.0356 56.4 13.6282 56.4 14.2207V15.2082C56 15.8995 54.5 16.7883 52.2 17.9734C51.8 18.1709 51.2 18.4671 50.4 18.9609C50.3 19.0597 50.2 19.1584 50.2 19.3559C50.2 19.9485 50.7 20.4422 51.8 20.7385C52.6 21.0348 53.4 21.1335 54.1 21.1335H54.7C54.9 21.0348 55.1 20.6397 55.4 20.146C55.7 19.5534 55.9 19.1584 56 19.0597C56.2 19.0597 56.3 19.1584 56.3 19.3559C56.3 19.6522 55.8 20.6397 54.7 22.1211C53.6 23.6024 52.9 24.5899 52.5 24.8862H52.1C51 24.8862 49.8 24.5899 48.4 23.8986C47.3 23.3061 46.6 22.8123 46.3 22.3186C45.8 21.5285 45.5 20.4422 45.4 18.8622V15.2082C45.4 14.2207 45.3 13.2331 45.2 12.1468V11.8506H45ZM50.2 18.3684C50.6 18.4671 51 18.2696 51.5 17.8746C52 17.4796 52.2 17.0846 52.2 16.7883C52.2 16.1958 52.1 15.6032 51.9 15.0107C51.7 14.4182 51.5 13.8257 51.1 13.2331C50.6 12.3443 50.3 11.8506 50 11.8506C50 12.0481 49.9 12.2456 49.9 12.3443V13.1344C49.9 13.0356 49.9 13.1344 50 13.5294V14.7145C50 16.2945 50.1 17.4796 50.2 18.3684ZM57.8 12.7394C57.8 12.5418 58.2 12.3443 59.1 12.1468C59.6 12.0481 60.2 11.8506 60.7 11.7518C61 11.6531 61.4 11.4555 61.9 11.1593C62.5 10.7643 62.9 10.5668 62.9 10.3692C62.9 10.1717 62.8 9.97423 62.7 9.77672C62.1 8.98668 61.5 7.70287 61.1 5.82653C61.2 5.43151 61.6 5.13525 62.2 4.83898C62.6 4.74023 63.3 4.44396 64.4 4.04894C65.5 3.65392 66.2 3.55517 66.4 3.55517C66.6 3.55517 66.7 3.65392 66.7 3.75268C66.7 3.85143 66.5 3.95019 66.2 4.1477C65.9 4.24645 65.7 4.44396 65.7 4.64147C65.7 5.13524 66.7 7.01158 68.7 10.1717C70.7 13.3319 71.7 15.4057 71.7 16.492C71.7 17.2821 71.4 17.9734 70.9 18.6646C70.1 19.5534 68.9 20.8372 67.2 22.3186C65.2 24.1949 63.8 25.0837 63.2 25.0837C62.8 25.0837 62 24.7874 60.9 24.1949C59.2 23.2074 58.3 22.2198 58.2 21.331L57.9 13.8257C57.9 13.7269 57.9 13.5294 57.8 13.3319V12.7394ZM63 17.3808C63 19.9485 64.3 21.2323 67 21.2323C67.4 21.2323 67.7 21.1335 67.8 20.936C67.9 20.8372 67.9 20.541 67.9 20.0472C67.9 19.6522 67.8 19.0597 67.5 18.3684C67.2 17.6771 66.6 16.2945 65.5 14.3194C64.3 12.0481 63.5 10.9618 63.2 10.9618C63 10.9618 62.9 11.4555 62.9 12.5419V13.5294C62.9 13.9244 62.9 14.4182 63 15.1095V17.3808ZM73.7 12.9369C73.3 13.1344 73.1 13.3319 72.9 13.3319C72.9 12.9369 73.1 12.5418 73.4 12.2456L74.3 11.3568C74.5 11.1593 75.1 10.468 76 9.18419C76.1 8.98668 76.3 8.88792 76.5 8.88792C76.8 8.88792 77.1 8.98668 77.5 9.18419C77.9 9.48045 78.4 9.87547 78.7 10.468C79.1 11.0605 79.3 11.5543 79.3 12.0481V18.7634C79.3 20.3435 79.8 21.1335 80.7 21.1335C80.9 21.1335 81 20.936 81.2 20.6397C81.4 20.3435 81.5 20.146 81.6 20.0472L81.7 20.146V20.4422C81.7 20.8372 81.3 21.726 80.5 22.8123C80.0475 23.5878 79.4738 24.2877 78.8 24.8862H78.4C78 24.8862 77.7 24.7874 77.4 24.6887C75.3 23.7011 74.3 22.6148 74.3 21.2323V14.3194C74.3 13.5294 74.1 13.1344 73.7 12.9369ZM75.4 7.4066C76.1 5.72777 76.8 4.64147 77.7 4.04894C78 3.85143 78.5 3.75268 79.1 3.75268C79.3 3.75268 79.4 3.85143 79.4 4.1477C79.4 4.44396 78.9 5.13524 77.8 6.22155C76.7 7.30785 76 7.80162 75.7 7.80162C75.5 7.70287 75.4 7.60411 75.4 7.4066ZM84.2 23.5036C83.7 23.5036 83.4 23.6024 83.4 23.9974C83.4 24.1949 83.6 24.2937 83.9 24.3924C84.2 24.4912 84.4 24.5899 84.4 24.6887C84.4 25.0837 84.2 25.1825 83.8 25.1825C83.2 25.1825 82.9 24.8862 82.9 24.2937C82.9 23.7011 83.5 22.7136 84.7 21.1335C84.9 20.936 85.3 20.6397 85.7 20.2447V20.146C85.7 20.0472 85.5 19.8497 85 19.5534C84.2 18.9609 83.6 18.1709 83.3 17.0846C83.1 16.3933 83 15.4057 83 14.1219C83 13.7269 83.1 13.4306 83.4 13.1344C83.6 12.9369 83.9 12.7394 84.3 12.6406C85.9 11.9493 87.4 11.0605 88.8 9.97423C89.5 9.48045 89.9 9.18419 90.1 9.18419C90.3 9.18419 90.6 9.3817 91.2 9.77672C91.8 10.1717 92.2 10.3692 92.3 10.468C93.1 10.6655 93.8 10.7643 94.4 10.7643C95.2 10.7643 95.6 10.6655 95.6 10.2705C95.6 9.97423 95.5 9.77672 95.1 9.77672H94.2C94.2 9.67796 94.1 9.57921 94.1 9.48045C94.1 8.98668 94.4 8.78917 94.9 8.78917C95.2 8.78917 95.4 8.88793 95.7 8.98668C95.9 9.08543 96.1 9.28294 96.1 9.57921C96.1 9.77672 96.1 9.97423 96 10.2705C96 10.5668 95.9 10.863 95.9 10.9618C95.9 11.0605 95.6 11.5543 94.9 12.4431C94.2 13.3319 93.9 13.7269 93.9 13.8257C93.9 14.0232 94 14.1219 94.4 14.3194C95 14.6157 95.4 15.1095 95.8 15.702C96.5 16.9858 96.8 18.3684 96.8 19.8497V20.6397C96.8 21.331 95.6 22.2198 93.3 23.5036C91.1 24.6887 89.6 25.38 88.8 25.38C88.7 25.38 88.2 25.0837 87.2 24.3924C86.1 23.7999 85.2 23.5036 84.2 23.5036ZM86.9 13.0356C86.9 14.1219 87.5 15.307 88.9 16.492C89.2 16.7883 89.4 16.8871 89.6 16.8871C89.9 16.7883 90.3 16.3933 91 15.8008L92.2 14.6157L92.1 14.5169C90.9 14.3194 89.9 14.0232 89.1 13.6282C89 13.6282 88.6 13.3319 88.1 12.9369C87.7 12.6406 87.4 12.4431 87.1 12.4431L87 12.5419V13.0356H86.9ZM87.3 19.5534C87.5 19.7509 88 20.0472 88.9 20.3435C89.8 20.6397 90.4 20.936 90.6 21.1335C91 21.4298 91.4 21.726 91.7 22.0223C92.1 22.4173 92.4 22.6148 92.7 22.6148C92.7 20.3435 92 18.6646 90.7 17.4796C90.6 17.3808 90.4 17.2821 90.3 17.1833C90 17.1833 89.5 17.4796 88.8 18.1709C88.2 18.6646 87.8 19.0597 87.3 19.5534ZM104.3 28.9351C104.4 28.8364 104.7 28.7376 105.3 28.6389C106 28.5401 106.5 28.4414 106.9 28.3426C107.5 28.1451 107.9 27.7501 108.2 27.1575C108.5 26.565 108.6 25.5775 108.6 23.9974C108.6 23.5036 108.6 22.8123 108.5 21.8248C108.5 20.8372 108.4 20.146 108.4 19.6522L108.3 19.5534C108.1 16.7883 108 14.912 108.1 14.1219C106.2 13.5294 105.1 13.2331 104.8 13.2331C104.1 13.2331 103.7 13.9244 103.7 15.2082V18.3684C103.8 19.0597 104 19.6522 104.4 20.146C104.8 20.6397 105.2 20.8372 105.6 20.8372C105.7 20.8372 105.9 20.6397 106 20.2447C106.2 19.8497 106.3 19.6522 106.4 19.6522C106.5 19.6522 106.6 19.7509 106.6 19.8497C106.6 19.9485 106.3 20.7385 105.7 22.0223C105.1 23.3061 104.7 24.0962 104.6 24.2937C104.4 24.5899 104.2 24.8862 104 25.0837H103.8C103.2 25.0837 102.6 24.9849 101.8 24.5899C100.1 23.8986 99.1 22.8123 99 21.2323C98.9 20.8372 98.8 20.146 98.8 19.3559V8.98668L98.9 8.88792C98.7 8.39415 98.7 7.30785 98.7 5.82653C98.7 5.72777 98.6 5.53026 98.4 5.234C98.2 4.93774 98.1 4.74023 98.1 4.64147C98.1 4.44396 98.2 4.44396 98.4 4.44396H100.7C101.2 4.44396 101.9 4.34521 102.8 4.04894C103.6 3.75268 104.2 3.65392 104.4 3.65392C104.6 3.65392 104.7 3.75268 104.7 3.85143C104.7 3.95019 104.6 4.1477 104.4 4.24645C104.2 4.34521 104 4.44396 103.9 4.54272C103.7 4.74023 103.6 5.13525 103.6 5.92528L103.7 12.9369H103.8L104.9 11.8506C105.5 11.258 106.3 10.2705 107.4 8.78917C107.5 8.69042 107.5 8.69042 107.7 8.69042C107.9 8.69042 108.2 8.78917 108.5 8.88792C108.7 8.98668 109.1 9.08543 109.8 9.28294C110.5 9.48045 110.9 9.57921 111.1 9.57921C111.4 9.57921 111.9 9.57921 112.6 9.67796C113 9.77672 113.2 10.073 113.2 10.468V14.2207C113.2 16.097 113.3 17.5783 113.5 18.5659V23.6024C113.5 24.4912 112.3 25.6762 109.9 26.96C107.7 28.1451 105.9 28.8364 104.8 28.8364C104.4 29.0339 104.3 29.0339 104.3 28.9351ZM128.4 5.92528C128.4 5.62902 128.3 5.33275 128.1 4.93774C127.9 4.54272 127.8 4.34521 127.8 4.24645C127.8 4.1477 127.8 4.1477 127.9 4.04894H129.1C132 4.04894 133.6 3.85143 134.1 3.55517H134.4C134.5 3.55517 134.6 3.65392 134.6 3.75268C134.6 3.95019 134.5 3.95019 134.4 3.95019C134 4.1477 133.7 4.34521 133.5 4.64147C133.3 4.93774 133.4 5.234 133.4 5.72777V11.9493L133.6 12.0481C134 11.6531 134.6 11.1593 135.5 10.468C136.4 9.77672 137 9.28294 137.4 8.88792H137.5C138.1 8.88792 138.9 9.67796 139.9 11.1593C140.8 12.4431 141.4 13.4306 141.7 14.2207C142 15.0107 142.1 15.5045 142.1 15.9983C142.1 16.097 142.1 16.1958 142 16.3933C141.9 16.5908 141.9 16.6895 141.9 16.7883C141.9 16.8871 141.9 16.9858 142 17.0846C142 17.1833 142.1 17.3808 142.1 17.3808C142.1 18.0721 140.6 19.8497 137.5 22.7136C136.7 23.3061 135.8 24.0962 134.9 24.7874H134.4C133.7 24.7874 133 24.5899 132.1 24.2937C131.2 23.9974 130.6 23.6024 130.1 23.1086L129.1 22.1211C128.6 21.6273 128.4 19.5534 128.4 15.9983V5.92528ZM137.9 21.1335L138 21.0348V20.3435C138 19.4547 137.8 18.3684 137.5 17.2821C137.1 16.097 136.6 15.2082 136 14.6157L135.1 13.7269C134.4 13.0356 133.9 12.6406 133.7 12.6406C133.4 12.6406 133.3 12.9369 133.3 13.5294V15.8008C133.3 16.2945 133.4 16.6895 133.4 16.7883V17.9734C133.5 19.2572 134.3 20.146 135.9 20.6397C136.9 20.936 137.6 21.1335 137.9 21.1335ZM143.9 12.9369C143.5 13.1344 143.3 13.3319 143.1 13.3319C143.1 12.9369 143.3 12.5418 143.6 12.2456L144.5 11.3568C144.7 11.1593 145.3 10.468 146.2 9.18419C146.3 8.98668 146.5 8.88792 146.7 8.88792C147 8.88792 147.3 8.98668 147.7 9.18419C148.1 9.48045 148.6 9.87547 148.9 10.468C149.3 11.0605 149.5 11.5543 149.5 12.0481V18.7634C149.5 20.3435 150 21.1335 150.9 21.1335C151.1 21.1335 151.2 20.936 151.4 20.6397C151.6 20.3435 151.7 20.146 151.8 20.0472L151.9 20.146V20.4422C151.9 20.8372 151.5 21.726 150.7 22.8123C150.248 23.5878 149.674 24.2877 149 24.8862H148.7C148.3 24.8862 148 24.7874 147.7 24.6887C145.6 23.7011 144.6 22.6148 144.6 21.2323V14.3194C144.5 13.5294 144.3 13.1344 143.9 12.9369ZM145.6 7.4066C146.3 5.72777 147 4.64147 147.9 4.04894C148.2 3.85143 148.7 3.75268 149.3 3.75268C149.5 3.75268 149.6 3.85143 149.6 4.1477C149.6 4.44396 149.1 5.13524 148 6.22155C146.9 7.30785 146.2 7.80162 145.9 7.80162C145.7 7.70287 145.6 7.60411 145.6 7.4066ZM153.8 20.4422C153.8 19.9485 153.8 19.1584 153.9 18.0721C153.9 16.9858 154 16.2945 154 15.702C154 14.6157 153.9 14.0232 153.8 13.9244C153.7 13.8257 153.6 13.8257 153.3 13.7269C153 13.6282 152.9 13.5294 152.9 13.4306C152.9 13.0356 153.7 12.0481 155.3 10.3692C157.1 8.49291 158.1 7.50536 158.2 7.30785C158.4 7.01158 158.5 6.81408 158.7 6.81408C158.9 6.81408 159 7.11034 159 7.70287C159 7.99913 159 8.39415 158.9 9.08543C158.9 9.77672 158.8 10.2705 158.8 10.5668C158.8 11.4555 158.9 11.9493 159.2 11.9493H160.4C160.5 11.9493 160.7 11.8506 160.8 11.7518C160.9 11.6531 161.1 11.5543 161.2 11.5543C161.3 11.5543 161.4 11.7518 161.4 12.1468C161.4 12.3443 161.4 12.6406 161.3 13.0356C161.2 13.4306 161.2 13.7269 161.2 13.9244C161.2 14.6157 161.1 15.0107 160.9 15.0107C160.7 15.0107 160.6 14.8132 160.6 14.3194C160.5 13.9244 160.4 13.6282 160.3 13.6282H159.2C159 13.6282 158.9 14.2207 158.9 15.307C158.9 17.1833 158.9 18.2696 159 18.6646C159.2 20.2447 159.8 20.936 160.8 20.936C160.9 20.936 161.1 20.8372 161.2 20.6397C161.3 20.4422 161.5 20.3435 161.6 20.3435C161.7 20.3435 161.8 20.4422 161.8 20.541C161.8 20.936 161.5 21.5285 160.9 22.1211C160.8 22.3186 160.5 22.7136 160.2 23.1086C159.9 23.4049 159.5 23.8986 159 24.5899C158.8 24.7874 158.6 24.8862 158.3 24.8862C158 24.8862 157.6 24.6887 157.1 24.3924C156.1 23.7999 155.6 23.4049 155.4 23.2074C154.8 22.7136 154.4 22.1211 154.3 21.5285V21.331C154 21.6273 153.9 21.1335 153.8 20.4422ZM163.7 20.4422C163.7 19.9485 163.7 19.1584 163.8 18.0721C163.8 16.9858 163.9 16.2945 163.9 15.702C163.9 14.6157 163.8 14.0232 163.7 13.9244C163.6 13.8257 163.5 13.8257 163.2 13.7269C162.9 13.6282 162.8 13.5294 162.8 13.4306C162.8 13.0356 163.6 12.0481 165.2 10.3692C167 8.49291 168 7.50536 168.1 7.30785C168.3 7.01158 168.4 6.81408 168.6 6.81408C168.8 6.81408 168.9 7.11034 168.9 7.70287C168.9 7.99913 168.9 8.39415 168.8 9.08543C168.8 9.77672 168.7 10.2705 168.7 10.5668C168.7 11.4555 168.8 11.9493 169.1 11.9493H170.3C170.4 11.9493 170.6 11.8506 170.7 11.7518C170.8 11.6531 171 11.5543 171.1 11.5543C171.2 11.5543 171.3 11.7518 171.3 12.1468C171.3 12.3443 171.3 12.6406 171.2 13.0356C171.1 13.4306 171.1 13.7269 171.1 13.9244C171.1 14.6157 171 15.0107 170.8 15.0107C170.6 15.0107 170.5 14.8132 170.5 14.3194C170.4 13.9244 170.3 13.6282 170.2 13.6282H169.1C168.9 13.6282 168.8 14.2207 168.8 15.307C168.8 17.1833 168.8 18.2696 168.9 18.6646C169.1 20.2447 169.7 20.936 170.7 20.936C170.8 20.936 171 20.8372 171.1 20.6397C171.2 20.4422 171.4 20.3435 171.5 20.3435C171.6 20.3435 171.7 20.4422 171.7 20.541C171.7 20.936 171.4 21.5285 170.8 22.1211C170.7 22.3186 170.4 22.7136 170.1 23.1086C169.8 23.4049 169.4 23.8986 168.9 24.5899C168.7 24.7874 168.5 24.8862 168.2 24.8862C167.9 24.8862 167.5 24.6887 167 24.3924C166 23.7999 165.5 23.4049 165.3 23.2074C164.7 22.7136 164.3 22.1211 164.2 21.5285V21.331C163.8 21.6273 163.8 21.1335 163.7 20.4422ZM172.7 11.8506L172.8 11.7518C174.3 11.7518 176.3 11.258 178.8 10.1717C178.9 10.1717 179.3 9.87547 180.1 9.48045C180.7 9.18419 181.1 8.98668 181.3 8.98668C181.6 8.98668 182.1 9.48045 182.7 10.468C183.3 11.3568 183.6 11.9493 183.8 12.4431C184 13.0356 184.1 13.6282 184.1 14.2207V15.2082C183.7 15.8995 182.2 16.7883 179.9 17.9734C179.5 18.1709 178.9 18.4671 178.1 18.9609C178 19.0597 177.9 19.1584 177.9 19.3559C177.9 19.9485 178.4 20.4422 179.5 20.7385C180.3 21.0348 181.1 21.1335 181.8 21.1335H182.4C182.6 21.0348 182.8 20.6397 183.1 20.146C183.4 19.5534 183.6 19.1584 183.7 19.0597C183.9 19.0597 184 19.1584 184 19.3559C184 19.6522 183.5 20.6397 182.4 22.1211C181.3 23.6024 180.6 24.5899 180.2 24.8862H179.8C178.7 24.8862 177.5 24.5899 176.1 23.8986C175 23.3061 174.3 22.8123 174 22.3186C173.5 21.5285 173.2 20.4422 173.1 18.8622V15.2082C173.1 14.2207 173 13.2331 172.9 12.1468V11.8506H172.7ZM177.9 18.3684C178.3 18.4671 178.7 18.2696 179.2 17.8746C179.7 17.4796 179.9 17.0846 179.9 16.7883C179.9 16.1958 179.8 15.6032 179.6 15.0107C179.4 14.4182 179.2 13.8257 178.8 13.2331C178.3 12.3443 178 11.8506 177.7 11.8506C177.7 12.0481 177.6 12.2456 177.6 12.3443V13.1344C177.6 13.0356 177.6 13.1344 177.7 13.5294V14.7145C177.8 16.2945 177.8 17.4796 177.9 18.3684ZM187.1 16.1958C187.1 14.4182 186.8 13.4306 186.1 13.4306C186 13.4306 186 13.4306 185.8 13.5294C185.6 13.6282 185.6 13.6282 185.5 13.6282C185.4 13.6282 185.4 13.5294 185.4 13.4306C185.4 13.3319 185.4 13.2331 185.5 13.1344C186.4 12.3443 187.3 11.258 188.4 9.87547C188.6 9.57921 188.8 9.48045 189 9.48045C189.5 9.48045 190.1 9.77672 190.7 10.3692C191.3 10.9618 191.7 11.4555 191.8 11.9493C191.8 12.2456 191.9 12.7394 192 13.4306C192.3 13.3319 192.6 12.5418 193.1 11.3568C193.5 10.1717 193.9 9.57921 194.1 9.57921C194.3 9.57921 194.8 9.67796 195.5 9.97423C196.2 10.2705 196.7 10.468 196.9 10.468C197 10.468 197 10.6655 197 10.9618C197 11.0605 196.7 11.7518 196.1 13.1344C195.4 14.6157 195.1 15.5045 195 15.702C194.9 16.097 194.8 16.5908 194.8 17.1833C194.8 17.3808 194.7 17.4796 194.5 17.4796C194.3 17.4796 194.1 17.3808 194.1 17.2821V16.8871C194.1 16.6895 194.2 16.3933 194.4 15.9983C194.6 15.6032 194.7 15.4057 194.7 15.2082C194.7 14.912 194.4 14.6157 193.8 14.4182C193.3 14.2207 192.9 14.1219 192.5 14.1219C192.2 14.1219 192 14.912 192 16.492V19.8497C192 20.3435 192.3 20.7385 192.8 20.936C193.2 21.1335 193.7 21.331 194.2 21.331C194.2 21.331 194.3 21.0348 194.5 20.541C194.6 20.146 194.8 19.9485 194.9 19.9485C195.1 19.9485 195.2 20.0472 195.2 20.3435C195 20.6397 194.8 21.0348 194.7 21.331C194.6 21.6273 194.2 22.3186 193.5 23.3061C192.8 24.3924 192.3 24.9849 192.2 25.0837C192 25.1825 191.8 25.2812 191.6 25.2812C191.1 25.2812 190.3 24.8862 189.2 24.1949C188.1 23.5036 187.5 22.9111 187.4 22.4173C187.3 22.0223 187.2 21.5285 187.2 20.8372V18.4671C187.1 17.2821 187.1 16.492 187.1 16.1958Z" fill="#303030"/>
</g>
</g>
</g>
<defs>
<clipPath id="clip0_0_1">
<rect width="1280" height="4498" fill="white" transform="translate(-90 -35)"/>
</clipPath>
</defs>
</svg>
